Coordinates
version=1
nRows=29
nColumns=24
inDegrees=yes

Units are S.I. units (second, meters, Newtons, ...)
Angles are in degrees.

endheader
time	pelvis_tilt	pelvis_list	pelvis_rotation	pelvis_tx	pelvis_ty	pelvis_tz	hip_flexion_r	hip_adduction_r	hip_rotation_r	knee_angle_r	ankle_angle_r	subtalar_angle_r	mtp_angle_r	hip_flexion_l	hip_adduction_l	hip_rotation_l	knee_angle_l	ankle_angle_l	subtalar_angle_l	mtp_angle_l	lumbar_extension	lumbar_bending	lumbar_rotation
      3.82000000	     -7.82986426	     -6.08113856	      6.43337458	     -0.28268456	     -0.03847714	      0.70593111	     30.25420485	      2.38517945	     -1.15099021	    -34.38587798	      3.50653879	     -0.33514910	     17.35339059	     16.19548077	     -4.77792781	      5.07005080	    -63.55141338	    -27.72569327	      7.70688244	     34.78393343	      7.65274172	     13.18980623	     -6.87182104
      3.82500000	     -7.77857889	     -6.10677104	      6.37965073	     -0.27574925	     -0.03738976	      0.70643126	     29.62112999	      2.59158468	     -1.05729304	    -34.15438495	      3.80801346	     -0.66758053	     16.79824370	     17.23442876	     -4.74638477	      4.89633705	    -64.66370286	    -26.78819132	      8.31319029	     36.49307297	      7.57575086	     13.22337719	     -6.63395727
      3.83000000	     -7.68976629	     -6.06640698	      6.25155466	     -0.26879587	     -0.03622608	      0.70688757	     28.92177156	      2.75073750	     -0.84303263	    -33.89034107	      4.19360359	     -0.68635718	     16.61602720	     18.19766376	     -4.67860938	      4.57458616	    -65.71187450	    -25.78907144	      8.68263915	     37.30711612	      7.43951261	     13.21403355	     -6.37940984
      3.83500000	     -7.59847368	     -6.08661155	      6.14593026	     -0.26185581	     -0.03502754	      0.70725918	     28.19488974	      2.94396367	     -0.70493056	    -33.55963705	      4.51926888	     -0.71167667	     16.51807384	     19.17295679	     -4.68135663	      4.25231081	    -66.69841164	    -24.93230877	      8.73831810	     37.78494943	      7.31762439	     13.27221583	     -6.12490792
      3.84000000	     -7.53380849	     -6.12073630	      6.03258132	     -0.25489982	     -0.03382580	      0.70773550	     27.47477401	      3.17310489	     -0.51483589	    -33.18480760	      4.77611147	     -0.90152289	     16.30756025	     20.16045872	     -4.71477052	      3.95100941	    -67.59836600	    -24.12919240	      8.77628301	     38.09129789	      7.23356086	     13.32398843	     -5.89367646
      3.84500000	     -7.48803128	     -6.15359592	      5.93239082	     -0.24786701	     -0.03261900	      0.70823676	     26.74435410	      3.40919633	     -0.28289823	    -32.78365082	      5.10323017	     -1.13093701	     15.59445613	     21.15375219	     -4.74934017	      3.65781848	    -68.43932098	    -23.30987661	      8.70641112	     37.75493886	      7.19387107	     13.35844774	     -5.71626070
      3.85000000	     -7.41991952	     -6.19091405	      5.80737798	     -0.24095187	     -0.03138976	      0.70865909	     25.99437995	      3.63053365	     -0.10583209	    -32.35575954	      5.32190515	     -1.34392546	     15.19888894	     22.11196511	     -4.80001980	      3.31553285	    -69.18567255	    -22.71082961	      8.27203286	     37.41378363	      7.10245591	     13.42074598	     -5.47476363
      3.85500000	     -7.35940323	     -6.22118244	      5.69491084	     -0.23393389	     -0.03014236	      0.70904521	     25.21193790	      3.84129236	      0.14001661	    -31.88073239	      5.60982770	     -1.46247922	     14.65740777	     23.05192212	     -4.83808022	      2.99224655	    -69.85681765	    -22.08206555	      7.82121364	     36.58808255	      7.04734716	     13.46729395	     -5.28967334
      3.86000000	     -7.29457178	     -6.27893825	      5.58796959	     -0.22698707	     -0.02893036	      0.70938014	     24.42834402	      4.04331876	      0.26117761	    -31.37759722	      5.83032272	     -1.53833206	     14.51087708	     23.97169740	     -4.90802101	      2.69969899	    -70.39964018	    -21.70805840	      7.25119088	     36.44444955	      6.97775989	     13.55089550	     -5.10090966
      3.86500000	     -7.23920050	     -6.25377855	      5.42430034	     -0.21995606	     -0.02769231	      0.70976673	     23.63244598	      4.20871742	      0.56577579	    -30.88535125	      6.09662110	     -1.68476963	     13.77486089	     24.85464583	     -4.91360008	      2.28679906	    -70.91990300	    -20.93977656	      6.66832319	     34.83214228	      6.91272783	     13.54766771	     -4.86083511
      3.87000000	     -7.19203509	     -6.25563092	      5.29809272	     -0.21299873	     -0.02649453	      0.71010450	     22.83883158	      4.37265156	      0.81843647	    -30.35342317	      6.29507976	     -1.83872685	     13.38790900	     25.73979023	     -4.93413939	      1.94184704	    -71.30842644	    -20.45557321	      5.99577797	     34.02671495	      6.85621346	     13.56747720	     -4.68095197
      3.87500000	     -7.15143925	     -6.23245008	      5.18162054	     -0.20608678	     -0.02531584	      0.71046451	     22.04859361	      4.50747888	      1.06805985	    -29.80440202	      6.42334588	     -2.10763151	     13.15419428	     26.60511530	     -4.93180010	      1.60279223	    -71.57689686	    -20.08634177	      5.27968035	     33.61439231	      6.79615474	     13.55057455	     -4.52886131
      3.88000000	     -7.11178479	     -6.23001666	      5.04978067	     -0.19921498	     -0.02415470	      0.71075034	     21.24924643	      4.65483850	      1.35429703	    -29.22774058	      6.53620794	     -2.26845085	     12.93569381	     27.45483585	     -4.94490461	      1.28457371	    -71.76808429	    -19.70432005	      4.61421009	     33.22094344	      6.72771784	     13.57387691	     -4.29966593
      3.88500000	     -7.07198204	     -6.15985857	      4.88579979	     -0.19230372	     -0.02300485	      0.71113165	     20.43835775	      4.75418775	      1.72292005	    -28.65123170	      6.66028622	     -2.51993058	     12.59902071	     28.25843970	     -4.92213961	      0.89260167	    -71.87078723	    -19.25736319	      3.98770029	     32.61515517	      6.64823830	     13.51529540	     -4.08038527
      3.89000000	     -7.00763624	     -6.03328369	      4.71709345	     -0.18538618	     -0.02190186	      0.71146398	     19.60714229	      4.77692693	      2.07013976	    -28.12100537	      6.96389315	     -2.55133947	     11.87352088	     29.00258781	     -4.84294132	      0.48795244	    -71.94784290	    -18.42547677	      3.68006752	     31.20829265	      6.53454398	     13.40013915	     -3.88330157
      3.89500000	     -7.01118413	     -5.97157779	      4.60408867	     -0.17859079	     -0.02091040	      0.71174787	     18.85229556	      4.83711696	      2.34729322	    -27.53800567	      7.04620666	     -2.80171236	     11.64045755	     29.83280680	     -4.79592307	      0.19071219	    -71.88793515	    -18.10731706	      3.10682685	     31.04746964	      6.49589317	     13.33868171	     -3.71743857
      3.90000000	     -6.93346271	     -5.84054651	      4.38532833	     -0.17176439	     -0.01987020	      0.71217041	     18.00997710	      4.86649110	      2.76680228	    -26.99080869	      7.25968271	     -2.89896804	     11.02846299	     30.50798723	     -4.75831745	     -0.23325844	    -71.77252492	    -17.48556679	      2.78935914	     30.21045948	      6.33365740	     13.22112413	     -3.43605984
      3.90500000	     -6.95589234	     -5.69947433	      4.26763903	     -0.16502448	     -0.01898007	      0.71249377	     17.28238153	      4.83739847	      3.07173398	    -26.42678709	      7.33184086	     -3.19804792	     10.78981884	     31.29814937	     -4.63688731	     -0.53030006	    -71.55027386	    -17.18540483	      2.32655963	     29.97981381	      6.29226925	     13.06033646	     -3.26158662
      3.91000000	     -6.92208602	     -5.54140320	      4.05678731	     -0.15828367	     -0.01807927	      0.71293768	     16.49503313	      4.82127007	      3.49711062	    -25.86826719	      7.42931022	     -3.42229063	     10.50422042	     31.97793156	     -4.57474171	     -0.92255310	    -71.25737804	    -16.79969272	      1.95890242	     29.55181946	      6.16204688	     12.89813681	     -2.97934020
      3.91500000	     -6.87271574	     -5.36993389	      3.85684112	     -0.15156619	     -0.01722812	      0.71337967	     15.69783695	      4.77919857	      3.88785370	    -25.32020010	      7.54648772	     -3.63434744	     10.15903960	     32.61933484	     -4.50115333	     -1.30391617	    -70.90437652	    -16.35914744	      1.62241004	     28.86588999	      6.00929209	     12.71557927	     -2.70389670
      3.92000000	     -6.80438829	     -5.25674176	      3.69423026	     -0.14487823	     -0.01651958	      0.71368146	     14.89094544	      4.76310996	      4.20112497	    -24.79267755	      7.80247233	     -3.62389002	      9.63186535	     33.25630962	     -4.46374310	     -1.62224272	    -70.57462518	    -15.62905401	      1.45013900	     27.39025899	      5.84322764	     12.59882297	     -2.47681680
      3.92500000	     -6.80392663	     -5.09644973	      3.48064734	     -0.13818329	     -0.01585843	      0.71413119	     14.16404594	      4.70990882	      4.55511652	    -24.25848938	      7.87814626	     -3.82403984	      9.40335591	     33.90656605	     -4.42476037	     -1.99981946	    -70.07679285	    -15.26008538	      1.10283884	     26.79687050	      5.74117345	     12.41893645	     -2.23693560
      3.93000000	     -6.75138850	     -4.92319879	      3.32852393	     -0.13148318	     -0.01525000	      0.71446291	     13.38267686	      4.61605574	      4.82171943	    -23.73729976	      8.03740214	     -3.96382380	      9.04476388	     34.48859922	     -4.33392642	     -2.31338248	    -69.56596469	    -14.57378656	      0.96204590	     25.38871426	      5.59040734	     12.21843830	     -2.02305037
      3.93500000	     -6.74412250	     -4.77278395	      3.10574188	     -0.12484796	     -0.01473927	      0.71490544	     12.66302051	      4.56002304	      5.18181899	    -23.21594224	      8.10536599	     -4.15749213	      8.88973405	     35.08899748	     -4.32151862	     -2.67582027	    -68.93316842	    -14.23426896	      0.61691319	     24.76908082	      5.46708193	     12.04794888	     -1.74276830
      3.94000000	     -6.69521619	     -4.58515893	      2.91581988	     -0.11819199	     -0.01426649	      0.71531922	     11.89961413	      4.45436631	      5.49959508	    -22.70524704	      8.20217703	     -4.39432761	      8.71616893	     35.60893610	     -4.25792778	     -3.01686679	    -68.23883539	    -13.74196974	      0.37052594	     23.82228310	      5.30033574	     11.82602135	     -1.46723707
      3.94500000	     -6.65051934	     -4.42603392	      2.72563594	     -0.11150265	     -0.01384710	      0.71567308	     11.13509983	      4.36054912	      5.80940320	    -22.18153162	      8.28847996	     -4.51577782	      8.55484181	     36.11460796	     -4.22533327	     -3.34185294	    -67.50308977	    -13.14642377	      0.21302275	     22.49609363	      5.15096542	     11.63954772	     -1.24963998
      3.95000000	     -6.63970360	     -4.27074433	      2.56559857	     -0.10483640	     -0.01357209	      0.71599320	     10.42046054	      4.25623668	      6.06070554	    -21.67758156	      8.39079597	     -4.66125308	      8.43593918	     36.63668707	     -4.17205479	     -3.60970819	    -66.69479728	    -12.60332217	      0.05868543	     21.38235842	      5.04236160	     11.44535245	     -1.05231046
      3.95500000	     -6.63360027	     -4.13881671	      2.45625018	     -0.09815478	     -0.01342308	      0.71622453	      9.71462537	      4.15482356	      6.21281804	    -21.18022657	      8.53250877	     -4.76530141	      8.30332129	     37.15112893	     -4.10455408	     -3.79634445	    -65.85425459	    -11.90709930	      0.03884809	     19.99993982	      4.95334413	     11.26762546	     -0.91064867
      3.96000000	     -6.72016737	     -3.99819961	      2.33736621	     -0.09148245	     -0.01342140	      0.71653230	      9.11471042	      4.04773583	      6.42417326	    -20.69144899	      8.65228583	     -4.92486638	      8.24993755	     37.72488381	     -4.03343623	     -3.95129878	    -64.86607862	    -11.68080580	     -0.14259827	     19.80226574	      4.96719631	     11.06423966	     -0.79326740
